<svg width="53" height="18" viewBox="0 0 53 18" fill="none" xmlns="http://www.w3.org/2000/svg">
<path d="M4.09955 -0.000444412L8.3183 13.2609H8.48023L12.7075 -0.000444412H16.7984L10.7814 17.4541H6.02568L0.000113264 -0.000444412H4.09955ZM22.1336 -0.000444412V17.4541H18.4433V-0.000444412H22.1336ZM27.8672 -0.000444412L32.086 13.2609H32.2479L36.4752 -0.000444412H40.5661L34.5491 17.4541H29.7934L23.7678 -0.000444412H27.8672ZM45.9013 -0.000444412V17.4541H42.2109V-0.000444412H45.9013ZM50.5355 17.6757C49.973 17.6757 49.49 17.4768 49.0866 17.0791C48.6889 16.6757 48.49 16.1927 48.49 15.6302C48.49 15.0734 48.6889 14.5961 49.0866 14.1984C49.49 13.8007 49.973 13.6018 50.5355 13.6018C51.0809 13.6018 51.5582 13.8007 51.9673 14.1984C52.3764 14.5961 52.5809 15.0734 52.5809 15.6302C52.5809 16.0052 52.4843 16.349 52.2912 16.6615C52.1037 16.9683 51.8565 17.2155 51.5497 17.403C51.2429 17.5848 50.9048 17.6757 50.5355 17.6757Z" fill="black"/>
</svg>
